# xmcd
# 
# Track frame offsets:
#     150
#     21035
#     42561
#     49623
#     52904
#     69806
#     95578
#     118580
#     137118
#     138717
#     156562
#     169014
#     187866
#     192523
#     200497
#     205135
#     227486
#     243699
#     266182
#     293092
#     303273
#     321761
# 
# Disc length: 4351
# 
# Revision: 27
# Processed by: cddbd v1.5.2PL0 Copyright (c) Steve Scherf et al.
# Submitted via: fre:ac v1.0.27
# 
DISCID=4510fd16
DTITLE=菅野よう子 - マクロスF(フロンティア) VOCAL COLLECTION 娘たま (2枚組 ディスク1)
DYEAR=2008
DGENRE=Anime
TTITLE0=坂本真綾 - トライアングラー
TTITLE1=ランカ・リー=中島 愛, シェリル・ノーム starring May'n - What 'bout my star? @Formo
TTITLE2=ランカ・リー=中島 愛 - アイモ
TTITLE3=ランカ・リー=中島 愛, シェリル・ノーム starring May'n - ダイアモンド クレバス～展望公園にて
TTITLE4=シェリル・ノーム starring May'n - Welcome To My FanClub's Night!
TTITLE5=シェリル・ノーム starring May'n - 射手座☆午後九時 Don't be late
TTITLE6=シェリル・ノーム starring May'n - What 'bout my star?
TTITLE7=シェリル・ノーム starring May'n, ランカ・リー=中島 愛 - インフィニティ #7
TTITLE8=ランカ・リー=中島 愛 - 「超時空飯店 娘々」 CMソング (Ranka Version)
TTITLE9=ランカ・リー=中島 愛 - 星間飛行
TTITLE10=ランカ・リー=中島 愛 - 私の彼はパイロット
TTITLE11=ランカ・リー=中島 愛 - ねこ日記
TTITLE12=ランカ・リー=中島 愛 - ニンジーン Loves you yeah!
TTITLE13=徳川喜一郎 - 宇宙兄弟船
TTITLE14=SMSのみなさん - SMS小隊の歌～あの娘はエイリアン
TTITLE15=ランカ・リー=中島 愛 - アイモ O.C.
TTITLE16=ランカ・リー=中島 愛 - アイモ～鳥のひと
TTITLE17=ランカ・リー=中島 愛 - 愛・おぼえていますか
TTITLE18=シェリル・ノーム starring May'n - ダイアモンド クレバス
TTITLE19=坂本真綾 (蘭雪) - アイモ ～こいのうた～
TTITLE20=シェリル・ノーム starring May'n, ランカ・リー=中島 愛 - インフィニティ #7 (without vocal)
TTITLE21=ランカ・リー=中島 愛 - ニンジーン Loves you yeah! (without vocal)
EXTD=YEAR: 2008
EXTT0=
EXTT1=
EXTT2=
EXTT3=
EXTT4=
EXTT5=
EXTT6=
EXTT7=
EXTT8=
EXTT9=
EXTT10=
EXTT11=
EXTT12=
EXTT13=
EXTT14=
EXTT15=
EXTT16=
EXTT17=
EXTT18=
EXTT19=
EXTT20=
EXTT21=
PLAYORDER=
